<svg id="visual" viewBox="0 0 900 600" width="900" height="600" xmlns="http://www.w3.org/2000/svg" xmlns:xlink="http://www.w3.org/1999/xlink" version="1.1"><g stroke-width="1" stroke-linejoin="bevel"><path d="M471 337L374 391L475 416Z" fill="#aaeeee" stroke="#aaeeee"></path><path d="M471 337L363 305L374 391Z" fill="#11232f" stroke="#11232f"></path><path d="M374 391L436 484L475 416Z" fill="#2e4a58" stroke="#2e4a58"></path><path d="M285 300L329 422L374 391Z" fill="#82bcc4" stroke="#82bcc4"></path><path d="M374 391L337 470L436 484Z" fill="#1f3643" stroke="#1f3643"></path><path d="M436 484L480 499L475 416Z" fill="#3d5f6d" stroke="#3d5f6d"></path><path d="M475 416L560 428L471 337Z" fill="#00101c" stroke="#00101c"></path><path d="M329 422L337 470L374 391Z" fill="#11232f" stroke="#11232f"></path><path d="M436 484L468 600L480 499Z" fill="#00101c" stroke="#00101c"></path><path d="M566 462L560 428L475 416Z" fill="#1f3643" stroke="#1f3643"></path><path d="M480 499L566 462L475 416Z" fill="#3d5f6d" stroke="#3d5f6d"></path><path d="M363 305L285 300L374 391Z" fill="#4d7583" stroke="#4d7583"></path><path d="M329 422L191 513L337 470Z" fill="#82bcc4" stroke="#82bcc4"></path><path d="M477 195L426 208L471 337Z" fill="#4d7583" stroke="#4d7583"></path><path d="M471 337L426 208L363 305Z" fill="#1f3643" stroke="#1f3643"></path><path d="M363 305L336 232L285 300Z" fill="#4d7583" stroke="#4d7583"></path><path d="M426 208L336 232L363 305Z" fill="#5e8c99" stroke="#5e8c99"></path><path d="M581 233L477 195L471 337Z" fill="#95d5d9" stroke="#95d5d9"></path><path d="M665 392L603 275L560 428Z" fill="#1f3643" stroke="#1f3643"></path><path d="M560 428L603 275L471 337Z" fill="#4d7583" stroke="#4d7583"></path><path d="M603 275L581 233L471 337Z" fill="#3d5f6d" stroke="#3d5f6d"></path><path d="M391 600L468 600L436 484Z" fill="#aaeeee" stroke="#aaeeee"></path><path d="M480 499L591 600L566 462Z" fill="#5e8c99" stroke="#5e8c99"></path><path d="M337 470L391 600L436 484Z" fill="#82bcc4" stroke="#82bcc4"></path><path d="M684 534L665 392L566 462Z" fill="#82bcc4" stroke="#82bcc4"></path><path d="M566 462L665 392L560 428Z" fill="#4d7583" stroke="#4d7583"></path><path d="M603 275L661 177L581 233Z" fill="#82bcc4" stroke="#82bcc4"></path><path d="M194 286L182 362L285 300Z" fill="#5e8c99" stroke="#5e8c99"></path><path d="M285 300L182 362L329 422Z" fill="#95d5d9" stroke="#95d5d9"></path><path d="M337 470L269 600L391 600Z" fill="#1f3643" stroke="#1f3643"></path><path d="M194 213L194 286L285 300Z" fill="#82bcc4" stroke="#82bcc4"></path><path d="M581 233L493 123L477 195Z" fill="#aaeeee" stroke="#aaeeee"></path><path d="M477 195L493 123L426 208Z" fill="#3d5f6d" stroke="#3d5f6d"></path><path d="M426 208L372 86L336 232Z" fill="#1f3643" stroke="#1f3643"></path><path d="M336 232L194 213L285 300Z" fill="#5e8c99" stroke="#5e8c99"></path><path d="M468 600L591 600L480 499Z" fill="#1f3643" stroke="#1f3643"></path><path d="M191 513L269 600L337 470Z" fill="#00101c" stroke="#00101c"></path><path d="M182 362L191 513L329 422Z" fill="#4d7583" stroke="#4d7583"></path><path d="M89 318L136 400L182 362Z" fill="#2e4a58" stroke="#2e4a58"></path><path d="M292 80L194 213L336 232Z" fill="#aaeeee" stroke="#aaeeee"></path><path d="M182 362L136 400L191 513Z" fill="#11232f" stroke="#11232f"></path><path d="M89 318L182 362L194 286Z" fill="#6fa4ae" stroke="#6fa4ae"></path><path d="M591 600L684 534L566 462Z" fill="#4d7583" stroke="#4d7583"></path><path d="M493 123L372 86L426 208Z" fill="#3d5f6d" stroke="#3d5f6d"></path><path d="M836 408L730 329L665 392Z" fill="#11232f" stroke="#11232f"></path><path d="M665 392L730 329L603 275Z" fill="#95d5d9" stroke="#95d5d9"></path><path d="M581 233L636 87L493 123Z" fill="#1f3643" stroke="#1f3643"></path><path d="M730 329L661 177L603 275Z" fill="#3d5f6d" stroke="#3d5f6d"></path><path d="M372 86L292 80L336 232Z" fill="#2e4a58" stroke="#2e4a58"></path><path d="M191 513L180 600L269 600Z" fill="#5e8c99" stroke="#5e8c99"></path><path d="M109 519L180 600L191 513Z" fill="#1f3643" stroke="#1f3643"></path><path d="M124 168L89 318L194 213Z" fill="#4d7583" stroke="#4d7583"></path><path d="M194 213L89 318L194 286Z" fill="#2e4a58" stroke="#2e4a58"></path><path d="M136 400L109 519L191 513Z" fill="#3d5f6d" stroke="#3d5f6d"></path><path d="M0 409L109 519L136 400Z" fill="#aaeeee" stroke="#aaeeee"></path><path d="M691 80L636 87L661 177Z" fill="#82bcc4" stroke="#82bcc4"></path><path d="M661 177L636 87L581 233Z" fill="#1f3643" stroke="#1f3643"></path><path d="M531 0L364 0L372 86Z" fill="#00101c" stroke="#00101c"></path><path d="M372 86L364 0L292 80Z" fill="#6fa4ae" stroke="#6fa4ae"></path><path d="M292 80L196 108L194 213Z" fill="#6fa4ae" stroke="#6fa4ae"></path><path d="M591 600L724 600L684 534Z" fill="#1f3643" stroke="#1f3643"></path><path d="M684 534L836 408L665 392Z" fill="#82bcc4" stroke="#82bcc4"></path><path d="M136 135L124 168L194 213Z" fill="#95d5d9" stroke="#95d5d9"></path><path d="M109 519L124 600L180 600Z" fill="#aaeeee" stroke="#aaeeee"></path><path d="M196 108L136 135L194 213Z" fill="#aaeeee" stroke="#aaeeee"></path><path d="M292 80L263 0L196 108Z" fill="#5e8c99" stroke="#5e8c99"></path><path d="M196 108L136 0L136 135Z" fill="#2e4a58" stroke="#2e4a58"></path><path d="M531 0L372 86L493 123Z" fill="#00101c" stroke="#00101c"></path><path d="M636 87L531 0L493 123Z" fill="#5e8c99" stroke="#5e8c99"></path><path d="M803 86L691 80L661 177Z" fill="#95d5d9" stroke="#95d5d9"></path><path d="M636 87L631 0L531 0Z" fill="#11232f" stroke="#11232f"></path><path d="M730 329L813 227L661 177Z" fill="#1f3643" stroke="#1f3643"></path><path d="M836 408L820 266L730 329Z" fill="#5e8c99" stroke="#5e8c99"></path><path d="M836 529L836 408L684 534Z" fill="#11232f" stroke="#11232f"></path><path d="M820 266L813 227L730 329Z" fill="#1f3643" stroke="#1f3643"></path><path d="M364 0L263 0L292 80Z" fill="#4d7583" stroke="#4d7583"></path><path d="M692 0L631 0L691 80Z" fill="#95d5d9" stroke="#95d5d9"></path><path d="M691 80L631 0L636 87Z" fill="#2e4a58" stroke="#2e4a58"></path><path d="M89 318L0 409L136 400Z" fill="#95d5d9" stroke="#95d5d9"></path><path d="M109 519L0 600L124 600Z" fill="#82bcc4" stroke="#82bcc4"></path><path d="M0 339L0 409L89 318Z" fill="#00101c" stroke="#00101c"></path><path d="M0 339L89 318L0 206Z" fill="#1f3643" stroke="#1f3643"></path><path d="M724 600L836 529L684 534Z" fill="#4d7583" stroke="#4d7583"></path><path d="M0 206L89 318L124 168Z" fill="#82bcc4" stroke="#82bcc4"></path><path d="M263 0L202 0L196 108Z" fill="#5e8c99" stroke="#5e8c99"></path><path d="M0 100L0 206L124 168Z" fill="#aaeeee" stroke="#aaeeee"></path><path d="M0 409L0 531L109 519Z" fill="#2e4a58" stroke="#2e4a58"></path><path d="M803 86L692 0L691 80Z" fill="#4d7583" stroke="#4d7583"></path><path d="M724 600L837 600L836 529Z" fill="#00101c" stroke="#00101c"></path><path d="M836 529L900 439L836 408Z" fill="#95d5d9" stroke="#95d5d9"></path><path d="M0 100L124 168L136 135Z" fill="#6fa4ae" stroke="#6fa4ae"></path><path d="M900 533L900 439L836 529Z" fill="#6fa4ae" stroke="#6fa4ae"></path><path d="M836 408L900 318L820 266Z" fill="#3d5f6d" stroke="#3d5f6d"></path><path d="M820 266L900 188L813 227Z" fill="#11232f" stroke="#11232f"></path><path d="M900 439L900 318L836 408Z" fill="#00101c" stroke="#00101c"></path><path d="M813 227L803 86L661 177Z" fill="#82bcc4" stroke="#82bcc4"></path><path d="M900 188L803 86L813 227Z" fill="#aaeeee" stroke="#aaeeee"></path><path d="M202 0L136 0L196 108Z" fill="#4d7583" stroke="#4d7583"></path><path d="M0 531L0 600L109 519Z" fill="#82bcc4" stroke="#82bcc4"></path><path d="M837 600L900 533L836 529Z" fill="#00101c" stroke="#00101c"></path><path d="M900 318L900 188L820 266Z" fill="#11232f" stroke="#11232f"></path><path d="M136 0L0 100L136 135Z" fill="#00101c" stroke="#00101c"></path><path d="M837 600L900 600L900 533Z" fill="#4d7583" stroke="#4d7583"></path><path d="M900 86L817 0L803 86Z" fill="#5e8c99" stroke="#5e8c99"></path><path d="M803 86L817 0L692 0Z" fill="#00101c" stroke="#00101c"></path><path d="M900 188L900 86L803 86Z" fill="#6fa4ae" stroke="#6fa4ae"></path><path d="M136 0L0 0L0 100Z" fill="#2e4a58" stroke="#2e4a58"></path><path d="M900 86L900 0L817 0Z" fill="#1f3643" stroke="#1f3643"></path></g></svg>